# xmcd
#
# Track frame offsets: 
#        150
#        13507
#        27084
#        44146
#        59946
#        72951
#        85274
#        100387
#        115225
#        129264
#        142135
#        157060
#        174639
#        188443
#
# Disc length: 2679 seconds
#
# Revision: 0
# Processed by: cddbd v1.5.2PL0 Copyright (c) Steve Scherf et al.
# Submitted via: ExactAudioCopy v1.3
#
DISCID=ca0a750e
DTITLE=Gord Bamford - Country Junkie
DYEAR=2013
DGENRE=Country
TTITLE0=Where A Farm Used To Be
TTITLE1=When Your Lips Are So Close
TTITLE2=The Truth
TTITLE3=Unreal
TTITLE4=One Makes Me Want Another
TTITLE5=Daughterville
TTITLE6=She Gets Me
TTITLE7=That's How We Party
TTITLE8=Groovin' With You
TTITLE9=Blue Jeans
TTITLE10=I Won't Regret That
TTITLE11=Saturday's Beer
TTITLE12=Gord Bamford (With Joe Diffie)
TTITLE13=Nights Like You
EXTD=
EXTT0=
EXTT1=
EXTT2=
EXTT3=
EXTT4=
EXTT5=
EXTT6=
EXTT7=
EXTT8=
EXTT9=
EXTT10=
EXTT11=
EXTT12=
EXTT13=
PLAYORDER=
